#!OML:ASF E:\emotionWalksFemale\Project 1\Capture day 1\Session 1\Female1.ASF
:FULLY-SPECIFIED
:DEGREES
1390
root 8.57198 15.4776 -27.9189 178.047 -2.23805 -180.062
lowerback 8.66889 -0.978083 -3.56182
upperback -6.39911 -2.02081 0.222507
thorax -11.6839 -0.755629 2.63696
lowerneck -7.21673 -2.81108 -4.76169
upperneck 3.81827 -3.58249 5.59391
head 2.7267 -1.65915 2.51296
rclavicle 1.16786e-015 2.28602e-015
rhumerus -43.0584 3.21555 -82.3304
rradius 28.8083
rwrist 21.1214
rhand 1.07759 -50.5137
rfingers 7.12502
rthumb 26.6221 -78.6621
lclavicle 1.16786e-015 2.28602e-015
lhumerus -41.6954 -11.2228 92.941
lradius 42.6506
lwrist -9.62399
lhand -10.872 -34.3951
lfingers 7.12502
lthumb 15.1438 -4.9692
rfemur -22.3324 3.87845 20.4617
rtibia 31.4283
rfoot -21.2995 -24.981
rtoes 1.09853
lfemur 8.41603 -18.6295 -33.2794
ltibia 13.7449
lfoot -20.0955 16.9401
ltoes -12.3995
1391
root 8.57782 15.4788 -27.9702 178.14 -2.45097 -180.235
lowerback 8.75443 -1.02033 -3.66799
upperback -6.35151 -2.09838 0.143675
thorax -11.6765 -0.786607 2.62649
lowerneck -7.66177 -2.79332 -4.7129
upperneck 3.88531 -3.54506 5.53807
head 2.828 -1.63467 2.48538
rclavicle -1.01877e-014 1.12313e-014
rhumerus -43.164 3.12675 -82.1698
rradius 28.6273
rwrist 21.6587
rhand 1.52075 -50.6948
rfingers 7.12502
rthumb 27.0462 -78.7781
lclavicle -1.01877e-014 1.12313e-014
lhumerus -41.7796 -10.9953 92.8613
lradius 42.3275
lwrist -9.98562
lhand -10.9907 -34.5169
lfingers 7.12502
lthumb 15.0294 -5.08236
rfemur -22.3519 4.95468 20.1402
rtibia 29.9365
rfoot -22.635 -25.6744
rtoes 4.86709
lfemur 8.64651 -18.4402 -33.3761
ltibia 13.4746
lfoot -20.0693 16.5583
ltoes -12.302
1392
root 8.58369 15.479 -28.0225 178.253 -2.66321 -180.444
lowerback 8.82078 -1.01447 -3.74723
upperback -6.43902 -2.12729 0.0368852
thorax -11.8174 -0.798008 2.56525
lowerneck -7.61625 -2.85582 -4.85264
upperneck 3.82743 -3.6176 5.58525
head 2.80965 -1.67247 2.52347
rclavicle 2.23633e-016 -1.59028e-015
rhumerus -43.6212 3.00414 -82.0171
rradius 28.3934
rwrist 21.9662
rhand 1.32079 -50.4865
rfingers 7.12502
rthumb 26.8548 -78.5993
lclavicle 2.23633e-016 -1.59028e-015
lhumerus -42.2119 -10.7161 92.8294
lradius 42.1148
lwrist -10.5252
lhand -10.5921 -34.3986
lfingers 7.12502
lthumb 15.4134 -4.99327
rfemur -22.4256 5.93691 19.7934
rtibia 28.5595
rfoot -22.79 -26.7978
rtoes 4.27724
lfemur 8.88125 -18.2416 -33.5119
ltibia 13.1632
lfoot -19.8019 16.2476
ltoes -13.1014
1393
root 8.59551 15.4736 -28.0794 178.462 -2.85107 -180.602
lowerback 8.70559 -1.0067 -3.85838
upperback -6.55432 -2.1538 -0.0404951
thorax -11.8777 -0.8087 2.5481
lowerneck -7.46123 -2.93629 -4.98942
upperneck 3.63362 -3.71332 5.62508
head 2.72579 -1.72369 2.55702
rclavicle 6.58474e-015 -3.18055e-015
rhumerus -44.1838 3.00861 -81.9346
rradius 28.3787
rwrist 22.0878
rhand 1.22997 -50.2883
rfingers 7.12502
rthumb 26.7679 -78.4144
lclavicle 6.58474e-015 -3.18055e-015
lhumerus -42.6608 -10.1878 92.6717
lradius 41.8848
lwrist -11.3849
lhand -9.86007 -34.2162
lfingers 7.12502
lthumb 16.1184 -4.86653
rfemur -22.5726 7.30577 19.4085
rtibia 27.2828
rfoot -23.3536 -28.0523
rtoes 5.09758
lfemur 9.02629 -18.0663 -33.5514
ltibia 12.8244
lfoot -19.4708 15.9903
ltoes -14.1018
1394
root 8.6108 15.4713 -28.1442 178.661 -3.02676 -180.673
lowerback 8.36809 -0.993969 -3.89556
upperback -6.56766 -2.14226 -0.113782
thorax -11.6897 -0.812938 2.47651
lowerneck -7.39917 -3.00766 -4.99431
upperneck 3.47735 -3.80103 5.53735
head 2.66368 -1.77173 2.52286
rclavicle 1.72446e-014 0
rhumerus -44.6143 2.97909 -81.8893
rradius 28.4769
rwrist 22.1185
rhand 1.40751 -50.3096
rfingers 7.12502
rthumb 26.9378 -78.4096
lclavicle 1.72446e-014 0
lhumerus -42.9342 -9.87218 92.5545
lradius 41.4684
lwrist -11.9344
lhand -9.38526 -34.2331
lfingers 7.12502
lthumb 16.5756 -4.92099
rfemur -22.6502 9.28827 18.9641
rtibia 26.1171
rfoot -25.697 -29.5719
rtoes 7.45627
lfemur 9.16273 -18.0165 -33.5134
ltibia 12.5571
lfoot -19.2672 15.8003
ltoes -15.1902
1395
root 8.62598 15.4733 -28.2102 178.783 -3.27115 -180.83
lowerback 8.26859 -1.02114 -4.1131
upperback -6.57267 -2.2119 -0.154885
thorax -11.6261 -0.833859 2.56317
lowerneck -7.78142 -3.02073 -5.12547
upperneck 3.71334 -3.80245 5.61754
head 2.82256 -1.7658 2.57403
rclavicle -2.87989e-014 -1.31198e-014
rhumerus -45.021 3.04147 -81.8534
rradius 28.6264
rwrist 22.1115
rhand 1.3416 -50.3039
rfingers 7.12502
rthumb 26.8748 -78.4136
lclavicle -2.87989e-014 -1.31198e-014
lhumerus -43.1527 -9.66546 92.5615
lradius 40.8633
lwrist -12.1283
lhand -9.34156 -34.2979
lfingers 7.12502
lthumb 16.6176 -4.98928
rfemur -22.6388 11.4446 18.3487
rtibia 25.0767
rfoot -28.0233 -31.007
rtoes 10.0371
lfemur 9.32746 -17.9671 -33.578
ltibia 12.4152
lfoot -19.1512 15.3892
ltoes -16.6044
1396
root 8.64418 15.4688 -28.2726 178.842 -3.50004 -181.027
lowerback 8.24425 -1.07921 -4.40416
upperback -6.53054 -2.33575 -0.242762
thorax -11.5501 -0.876393 2.65089
lowerneck -8.30114 -3.01023 -5.14859
upperneck 3.95307 -3.78002 5.80825
head 3.00903 -1.73808 2.64444
rclavicle -3.23025e-015 3.37934e-015
rhumerus -45.4017 3.15759 -81.9704
rradius 28.9241
rwrist 22.0392
rhand 1.44028 -50.4009
rfingers 7.12502
rthumb 26.9692 -78.4961
lclavicle -3.23025e-015 3.37934e-015
lhumerus -43.3572 -9.40183 92.3599
lradius 40.3295
lwrist -12.4155
lhand -9.40165 -34.318
lfingers 7.12502
lthumb 16.5598 -5.00453
rfemur -22.6506 13.7258 17.6717
rtibia 24.1796
rfoot -29.2775 -32.1514
rtoes 15.5691
lfemur 9.53069 -17.7646 -33.6743
ltibia 12.3442
lfoot -19.1012 14.852
ltoes -14.2914
1397
root 8.66209 15.4634 -28.3266 178.952 -3.66189 -181.091
lowerback 8.41085 -1.07057 -4.43951
upperback -6.7101 -2.37439 -0.348436
thorax -11.8587 -0.892958 2.57424
lowerneck -8.09099 -3.08491 -5.02793
upperneck 3.91991 -3.89602 5.72518
head 2.95807 -1.79987 2.58738
rclavicle 1.6847e-014 2.18663e-014
rhumerus -46.2112 3.36056 -82.1884
rradius 29.3394
rwrist 21.624
rhand 1.65018 -50.598
rfingers 7.12502
rthumb 27.17 -78.6619
lclavicle 1.6847e-014 2.18663e-014
lhumerus -43.9657 -9.09485 92.1185
lradius 39.9353
lwrist -12.998
lhand -9.32824 -34.3819
lfingers 7.12502
lthumb 16.6305 -5.07437
rfemur -22.8301 16.2566 17.0534
rtibia 23.3996
rfoot -31.7887 -34.4928
rtoes 15.9554
lfemur 9.58108 -17.5031 -33.5898
ltibia 12.3835
lfoot -19.0766 14.5256
ltoes -14.1847
1398
root 8.67408 15.4616 -28.3812 179.14 -3.81858 -181.097
lowerback 8.00709 -1.11426 -4.46492
upperback -6.53052 -2.39496 -0.342308
thorax -11.404 -0.912362 2.57908
lowerneck -8.43403 -3.16679 -4.92433
upperneck 3.73247 -3.98134 5.50246
head 2.95317 -1.84341 2.48388
rclavicle -8.34896e-015 5.76476e-015
rhumerus -46.0794 3.77361 -82.3836
rradius 29.3159
rwrist 20.8758
rhand 1.5091 -50.5195
rfingers 7.12502
rthumb 27.035 -78.6045
lclavicle -8.34896e-015 5.76476e-015
lhumerus -43.7928 -8.68601 91.8668
lradius 39.3639
lwrist -13.562
lhand -9.19817 -34.331
lfingers 7.12502
lthumb 16.7557 -5.03402
rfemur -23.0949 19.0103 16.3274
rtibia 22.6682
rfoot -34.5549 -36.4346
rtoes 19.0432
lfemur 9.44181 -17.2627 -33.4455
ltibia 12.631
lfoot -19.163 14.3071
ltoes -16.0275
